<svg id="Layer_1" data-name="Layer 1" xmlns="http://www.w3.org/2000/svg" viewBox="0 0 64 64"><defs><style>.cls-1{fill:#fff;}</style></defs><path d="M51.51,61.87A3.5,3.5,0,0,1,49,60.75L32.44,41.9l-16.55,16a3.37,3.37,0,0,1-5-.43,3.41,3.41,0,0,1,.44-4.56L28.75,37.68l-4.61-5.26a11.71,11.71,0,0,1-4.13.74,8.45,8.45,0,0,1-6.33-2.47L1.6,17.16a1.66,1.66,0,0,1-.45-1.22,1.72,1.72,0,0,1,.55-1.18,1.69,1.69,0,0,1,1.15-.44,1.68,1.68,0,0,1,1.25.54l10,11.31a.69.69,0,0,0,.51.22.72.72,0,0,0,.51-.22.74.74,0,0,0,0-1L5,14a1.7,1.7,0,0,1,.1-2.4l.1-.09a1.71,1.71,0,0,1,1.15-.44,1.68,1.68,0,0,1,1.25.54L17.77,22.82a.66.66,0,0,0,.51.23.72.72,0,0,0,.51-.22.74.74,0,0,0,0-1l-10.3-11a1.7,1.7,0,0,1,.1-2.41l.1-.09a1.67,1.67,0,0,1,1.15-.44,1.69,1.69,0,0,1,1.25.54l10.32,11a.7.7,0,0,0,.52.23.72.72,0,0,0,.51-.22.74.74,0,0,0,0-1L12,7.6a1.71,1.71,0,0,1,.09-2.41,1.72,1.72,0,0,1,2.4.1L27,18.45c2.65,2.88,2.46,7.43.9,10.61l4.89,5.1L39.85,28c-.73-3.88.86-9.84,5.41-14,3.54-3.26,7.84-5.21,11.51-5.21a7,7,0,0,1,5.32,2.08c3.4,3.7,1.38,11.1-4.51,16.52a17.41,17.41,0,0,1-11.44,4.6h0a11.23,11.23,0,0,1-3-.37L36.46,38,53.94,56.23a3.36,3.36,0,0,1-.42,5A3.29,3.29,0,0,1,51.51,61.87Z"/><path class="cls-1" d="M13.25,5.24a1.21,1.21,0,0,1,.88.39L26.61,18.79c2.53,2.75,2.32,7.25.65,10.36l5.47,5.7,7.67-6.71c-.85-3.76.71-9.72,5.2-13.85C49.17,11,53.36,9.22,56.77,9.22a6.5,6.5,0,0,1,4.95,1.92c3.22,3.5,1.21,10.57-4.47,15.81a16.89,16.89,0,0,1-11.11,4.47A10.36,10.36,0,0,1,43,31l-7.26,7L53.58,56.57a2.87,2.87,0,0,1-.36,4.22,2.8,2.8,0,0,1-1.71.58,3,3,0,0,1-2.19-1L32.47,41.17,15.54,57.54a2.88,2.88,0,0,1-4.22-.37,2.92,2.92,0,0,1,.39-3.9L29.45,37.73l-5.16-5.9a11.41,11.41,0,0,1-4.28.83,8,8,0,0,1-6-2.31L2,16.83A1.2,1.2,0,0,1,3.73,15.2l10,11.3a1.18,1.18,0,0,0,.88.39,1.2,1.2,0,0,0,.87-.38,1.23,1.23,0,0,0,0-1.67L5.4,13.67A1.21,1.21,0,0,1,5.47,12l.1-.09a1.2,1.2,0,0,1,.81-.32,1.24,1.24,0,0,1,.89.39L17.4,23.16a1.18,1.18,0,0,0,.88.39,1.2,1.2,0,0,0,.87-.38,1.23,1.23,0,0,0,0-1.67l-10.3-11a1.2,1.2,0,0,1,.07-1.7L9,8.72a1.25,1.25,0,0,1,.82-.32,1.23,1.23,0,0,1,.88.39L21,19.82a1.21,1.21,0,0,0,.88.39,1.2,1.2,0,0,0,.87-.38,1.23,1.23,0,0,0,0-1.67L12.37,7.26a1.21,1.21,0,0,1,.88-2m0-1v0a2.2,2.2,0,0,0-1.62,3.69L22,18.85a.2.2,0,1,1-.28.29l-10.33-11A2.19,2.19,0,0,0,9.82,7.4,2.15,2.15,0,0,0,8.33,8l-.1.09a2.2,2.2,0,0,0-.13,3.1l10.31,11a.24.24,0,0,1,0,.29.2.2,0,0,1-.3,0L8,11.28a2.19,2.19,0,0,0-3.12-.13l-.09.09a2.12,2.12,0,0,0-.71,1.52,2.14,2.14,0,0,0,.58,1.58L14.76,25.51a.25.25,0,0,1,0,.31.2.2,0,0,1-.3,0l-10-11.28a2.2,2.2,0,1,0-3.25,3L13.31,31A8.9,8.9,0,0,0,20,33.66,12.39,12.39,0,0,0,24,33L28,37.63l-17,14.89a3.93,3.93,0,0,0-.52,5.26,3.88,3.88,0,0,0,5.69.49L32.41,42.62,48.57,61.07a4,4,0,0,0,2.94,1.3,3.74,3.74,0,0,0,2.32-.79,3.85,3.85,0,0,0,.49-5.68L37.17,38,43.3,32.1a12.1,12.1,0,0,0,2.84.32,17.92,17.92,0,0,0,11.78-4.73c6.19-5.7,8.18-13.26,4.54-17.23a7.5,7.5,0,0,0-5.69-2.24c-3.79,0-8.22,2-11.85,5.34-4.57,4.21-6.24,10.18-5.61,14.2l-6.52,5.71L28.47,29c1.49-3.31,1.58-7.9-1.13-10.84L14.86,4.94a2.22,2.22,0,0,0-1.61-.7Z"/></svg>