<svg id="Layer_1" data-name="Layer 1" xmlns="http://www.w3.org/2000/svg" viewBox="0 0 512 512"><defs><style>.cls-1{fill:#fff;}</style></defs><path class="cls-1" d="M301,9l2,113a9.21,9.21,0,0,1-8.4,9.29,9,9,0,0,1-9.6-9L284,9a9,9,0,0,0-9-9h-1a9,9,0,0,0-9,9l1,113a9.21,9.21,0,0,1-8.4,9.29,9,9,0,0,1-9.6-9L249,9a9,9,0,0,0-9-9h-1a9,9,0,0,0-9,9l-1,113a9.21,9.21,0,0,1-8.4,9.29,9,9,0,0,1-9.6-9L213,9a9,9,0,0,0-9-9h0a9,9,0,0,0-9,9l-2,136c0,27.62,24.49,51.15,49,60.12L235,490c0,11.21,8.38,20.92,19.55,21.9A21.5,21.5,0,0,0,278,490.5l-6-285c25-8.7,49-32.47,49-60.46L319,9a9,9,0,0,0-9-9h0A9,9,0,0,0,301,9Z"/></svg>